[in#0 @ 000001e175c6a840] Capturing whole desktop as 1140x940x32 at (80,80)
[in#0/gdigrab @ 000001e175c6a840] Stream #0: not enough frames to estimate rate; consider increasing probesize
Input #0, gdigrab, from 'desktop':
  Duration: N/A, start: 1783798307.634018, bitrate: 1028748 kb/s
  Stream #0:0: Video: bmp, bgra, 1140x940, 1028748 kb/s, 30 fps, 1000k tbr, 1000k tbn, start 1783798307.634018
Stream mapping:
  Stream #0:0 -> #0:0 (bmp (native) -> h264 (libx264))
Press [q] to stop, [?] for help
[libx264 @ 000001e175d01900] using cpu capabilities: MMX2 SSE2Fast SSSE3 SSE4.2 AVX FMA3 BMI2 AVX2 AVX512
[libx264 @ 000001e175d01900] profile High, level 3.2, 4:2:0, 8-bit
[libx264 @ 000001e175d01900] 264 - core 165 r3223 0480cb0 - H.264/MPEG-4 AVC codec - Copyleft 2003-2025 - http://www.videolan.org/x264.html - options: cabac=1 ref=1 deblock=1:0:0 analyse=0x3:0x113 me=hex subme=2 psy=1 psy_rd=1.00:0.00 mixed_ref=0 me_range=16 chroma_me=1 trellis=0 8x8dct=1 cqm=0 deadzone=21,11 fast_pskip=1 chroma_qp_offset=0 threads=18 lookahead_threads=6 sliced_threads=0 nr=0 decimate=1 interlaced=0 bluray_compat=0 constrained_intra=0 bframes=3 b_pyramid=2 b_adapt=1 b_bias=0 direct=1 weightb=1 open_gop=0 weightp=1 keyint=250 keyint_min=25 scenecut=40 intra_refresh=0 rc_lookahead=10 rc=crf mbtree=1 crf=18.0 qcomp=0.60 qpmin=0 qpmax=69 qpstep=4 ip_ratio=1.40 aq=1:1.00
Output #0, matroska, to 'E:\Programming\voxel-nexus-issue29-proof-80eb207\docs\evidence\milestone-completion\development-machine\lifecycle\milestone-proof.mkv':
  Metadata:
    encoder         : Lavf62.12.102
  Stream #0:0: Video: h264 (H264 / 0x34363248), yuv420p(tv, progressive), 1140x940, q=2-31, 30 fps, 1k tbn
    Metadata:
      encoder         : Lavc62.28.102 libx264
    Side data:
      CPB properties: bitrate max/min/avg: 0/0/0 buffer size: 0 vbv_delay: N/A
frame=    0 fps=0.0 q=0.0 size=       0KiB time=N/A bitrate=N/A speed=N/A elapsed=0:00:00.51    frame=    0 fps=0.0 q=0.0 size=       0KiB time=N/A bitrate=N/A dup=0 drop=6 speed=N/A elapsed=0:00:01.02    frame=    2 fps=1.3 q=24.0 size=       1KiB time=-00:00:00.06 bitrate=N/A dup=0 drop=6 speed=N/A elapsed=0:00:01.54    frame=   18 fps=8.7 q=24.0 size=       1KiB time=00:00:01.00 bitrate=   4.8kbits/s dup=0 drop=6 speed=0.486x elapsed=0:00:02.05    frame=   33 fps= 13 q=24.0 size=       1KiB time=00:00:01.50 bitrate=   3.2kbits/s dup=0 drop=6 speed=0.58x elapsed=0:00:02.58    frame=   49 fps= 16 q=24.0 size=       1KiB time=00:00:02.03 bitrate=   2.3kbits/s dup=0 drop=6 speed=0.656x elapsed=0:00:03.09    frame=   64 fps= 18 q=24.0 size=       1KiB time=00:00:02.53 bitrate=   1.9kbits/s dup=0 drop=6 speed=0.701x elapsed=0:00:03.61    frame=   79 fps= 19 q=24.0 size=       1KiB time=00:00:03.03 bitrate=   1.6kbits/s dup=0 drop=6 speed=0.735x elapsed=0:00:04.12    frame=   96 fps= 21 q=24.0 size=       1KiB time=00:00:03.60 bitrate=   1.3kbits/s dup=0 drop=6 speed=0.772x elapsed=0:00:04.66    frame=  111 fps= 21 q=24.0 size=      15KiB time=00:00:04.10 bitrate=  29.1kbits/s dup=0 drop=6 speed=0.793x elapsed=0:00:05.16    frame=  125 fps= 22 q=24.0 size=      15KiB time=00:00:04.56 bitrate=  26.2kbits/s dup=0 drop=8 speed=0.799x elapsed=0:00:05.71    frame=  141 fps= 23 q=24.0 size=      15KiB time=00:00:05.10 bitrate=  23.4kbits/s dup=0 drop=8 speed=0.816x elapsed=0:00:06.25    frame=  158 fps= 23 q=24.0 size=      15KiB time=00:00:05.73 bitrate=  20.8kbits/s dup=0 drop=8 speed=0.842x elapsed=0:00:06.80    frame=  173 fps= 24 q=24.0 size=      15KiB time=00:00:06.23 bitrate=  19.2kbits/s dup=0 drop=8 speed=0.853x elapsed=0:00:07.31    frame=  189 fps= 24 q=24.0 size=      15KiB time=00:00:06.76 bitrate=  17.7kbits/s dup=0 drop=8 speed=0.864x elapsed=0:00:07.83    frame=  204 fps= 24 q=24.0 size=      15KiB time=00:00:07.26 bitrate=  16.4kbits/s dup=0 drop=9 speed=0.869x elapsed=0:00:08.36    frame=  219 fps= 25 q=24.0 size=      15KiB time=00:00:07.76 bitrate=  15.4kbits/s dup=0 drop=9 speed=0.875x elapsed=0:00:08.88    frame=  235 fps= 25 q=24.0 size=      15KiB time=00:00:08.33 bitrate=  14.3kbits/s dup=0 drop=9 speed=0.886x elapsed=0:00:09.40    frame=  251 fps= 25 q=24.0 size=      33KiB time=00:00:08.86 bitrate=  30.5kbits/s dup=0 drop=9 speed=0.893x elapsed=0:00:09.93    frame=  266 fps= 25 q=24.0 size=      33KiB time=00:00:09.36 bitrate=  28.8kbits/s dup=0 drop=9 speed=0.897x elapsed=0:00:10.44    frame=  280 fps= 26 q=24.0 size=      33KiB time=00:00:09.83 bitrate=  27.5kbits/s dup=0 drop=9 speed=0.897x elapsed=0:00:10.95    frame=  296 fps= 26 q=24.0 size=      33KiB time=00:00:10.36 bitrate=  26.1kbits/s dup=0 drop=9 speed=0.904x elapsed=0:00:11.46    frame=  311 fps= 26 q=24.0 size=      33KiB time=00:00:10.90 bitrate=  24.8kbits/s dup=0 drop=9 speed=0.909x elapsed=0:00:11.98    frame=  327 fps= 26 q=24.0 size=      33KiB time=00:00:11.43 bitrate=  23.6kbits/s dup=0 drop=9 speed=0.915x elapsed=0:00:12.49    frame=  342 fps= 26 q=24.0 size=      33KiB time=00:00:11.93 bitrate=  22.6kbits/s dup=0 drop=9 speed=0.917x elapsed=0:00:13.01    frame=  358 fps= 26 q=24.0 size=      38KiB time=00:00:12.46 bitrate=  25.0kbits/s dup=0 drop=9 speed=0.921x elapsed=0:00:13.53    frame=  373 fps= 27 q=24.0 size=      38KiB time=00:00:12.96 bitrate=  24.0kbits/s dup=0 drop=9 speed=0.923x elapsed=0:00:14.04    frame=  389 fps= 27 q=24.0 size=      38KiB time=00:00:13.50 bitrate=  23.0kbits/s dup=0 drop=9 speed=0.927x elapsed=0:00:14.56    frame=  404 fps= 27 q=24.0 size=      38KiB time=00:00:14.00 bitrate=  22.2kbits/s dup=0 drop=9 speed=0.929x elapsed=0:00:15.07    frame=  420 fps= 27 q=24.0 size=      38KiB time=00:00:14.53 bitrate=  21.4kbits/s dup=0 drop=9 speed=0.931x elapsed=0:00:15.60    frame=  435 fps= 27 q=24.0 size=      38KiB time=00:00:15.03 bitrate=  20.7kbits/s dup=0 drop=9 speed=0.933x elapsed=0:00:16.11    frame=  451 fps= 27 q=24.0 size=      38KiB time=00:00:15.56 bitrate=  20.0kbits/s dup=0 drop=9 speed=0.936x elapsed=0:00:16.62    frame=  466 fps= 27 q=24.0 size=      38KiB time=00:00:16.06 bitrate=  19.4kbits/s dup=0 drop=9 speed=0.937x elapsed=0:00:17.14    frame=  481 fps= 27 q=24.0 size=      38KiB time=00:00:16.56 bitrate=  18.8kbits/s dup=0 drop=9 speed=0.938x elapsed=0:00:17.65    frame=  497 fps= 27 q=24.0 size=      38KiB time=00:00:17.10 bitrate=  18.2kbits/s dup=0 drop=9 speed=0.941x elapsed=0:00:18.16    frame=  513 fps= 27 q=24.0 size=      61KiB time=00:00:17.63 bitrate=  28.3kbits/s dup=0 drop=9 speed=0.943x elapsed=0:00:18.69    frame=  528 fps= 27 q=24.0 size=      61KiB time=00:00:18.13 bitrate=  27.5kbits/s dup=0 drop=9 speed=0.944x elapsed=0:00:19.20    frame=  543 fps= 28 q=24.0 size=      61KiB time=00:00:18.63 bitrate=  26.8kbits/s dup=0 drop=9 speed=0.945x elapsed=0:00:19.71    frame=  559 fps= 28 q=24.0 size=      61KiB time=00:00:19.16 bitrate=  26.1kbits/s dup=0 drop=9 speed=0.947x elapsed=0:00:20.24    frame=  574 fps= 28 q=24.0 size=      61KiB time=00:00:19.66 bitrate=  25.4kbits/s dup=0 drop=9 speed=0.948x elapsed=0:00:20.75    frame=  590 fps= 28 q=24.0 size=      61KiB time=00:00:20.20 bitrate=  24.7kbits/s dup=0 drop=9 speed=0.95x elapsed=0:00:21.26    frame=  605 fps= 28 q=24.0 size=      70KiB time=00:00:20.70 bitrate=  27.6kbits/s dup=0 drop=9 speed=0.951x elapsed=0:00:21.77    frame=  620 fps= 28 q=24.0 size=      70KiB time=00:00:21.20 bitrate=  27.0kbits/s dup=0 drop=10 speed=0.951x elapsed=0:00:22.29    frame=  634 fps= 28 q=24.0 size=      70KiB time=00:00:21.66 bitrate=  26.4kbits/s dup=0 drop=11 speed=0.95x elapsed=0:00:22.81    frame=  650 fps= 28 q=24.0 size=      70KiB time=00:00:22.23 bitrate=  25.7kbits/s dup=0 drop=11 speed=0.953x elapsed=0:00:23.32    frame=  665 fps= 28 q=24.0 size=      70KiB time=00:00:22.76 bitrate=  25.1kbits/s dup=0 drop=11 speed=0.955x elapsed=0:00:23.84    frame=  680 fps= 28 q=24.0 size=      70KiB time=00:00:23.26 bitrate=  24.6kbits/s dup=0 drop=11 speed=0.955x elapsed=0:00:24.36    frame=  696 fps= 28 q=24.0 size=      70KiB time=00:00:23.80 bitrate=  24.0kbits/s dup=0 drop=12 speed=0.956x elapsed=0:00:24.89    frame=  711 fps= 28 q=24.0 size=      70KiB time=00:00:24.30 bitrate=  23.5kbits/s dup=0 drop=12 speed=0.956x elapsed=0:00:25.40    frame=  727 fps= 28 q=24.0 size=      70KiB time=00:00:24.86 bitrate=  23.0kbits/s dup=0 drop=12 speed=0.959x elapsed=0:00:25.93    frame=  742 fps= 28 q=24.0 size=      70KiB time=00:00:25.36 bitrate=  22.5kbits/s dup=0 drop=12 speed=0.959x elapsed=0:00:26.44    frame=  757 fps= 28 q=24.0 size=      93KiB time=00:00:25.86 bitrate=  29.3kbits/s dup=0 drop=12 speed=0.96x elapsed=0:00:26.95    frame=  773 fps= 28 q=24.0 size=      93KiB time=00:00:26.40 bitrate=  28.7kbits/s dup=0 drop=12 speed=0.961x elapsed=0:00:27.46    frame=  788 fps= 28 q=24.0 size=      93KiB time=00:00:26.90 bitrate=  28.2kbits/s dup=0 drop=12 speed=0.961x elapsed=0:00:27.98    frame=  803 fps= 28 q=24.0 size=     117KiB time=00:00:27.40 bitrate=  35.0kbits/s dup=0 drop=13 speed=0.961x elapsed=0:00:28.50    frame=  818 fps= 28 q=24.0 size=     117KiB time=00:00:27.90 bitrate=  34.3kbits/s dup=0 drop=13 speed=0.961x elapsed=0:00:29.02    frame=  834 fps= 28 q=24.0 size=     117KiB time=00:00:28.46 bitrate=  33.6kbits/s dup=0 drop=13 speed=0.964x elapsed=0:00:29.53    frame=  849 fps= 28 q=24.0 size=     117KiB time=00:00:28.96 bitrate=  33.1kbits/s dup=0 drop=13 speed=0.964x elapsed=0:00:30.04    frame=  865 fps= 28 q=24.0 size=     117KiB time=00:00:29.50 bitrate=  32.5kbits/s dup=0 drop=13 speed=0.965x elapsed=0:00:30.56    frame=  880 fps= 28 q=24.0 size=     117KiB time=00:00:30.00 bitrate=  31.9kbits/s dup=0 drop=13 speed=0.965x elapsed=0:00:31.07    frame=  895 fps= 28 q=24.0 size=     117KiB time=00:00:30.50 bitrate=  31.4kbits/s dup=0 drop=13 speed=0.966x elapsed=0:00:31.58    frame=  911 fps= 28 q=24.0 size=     117KiB time=00:00:31.03 bitrate=  30.9kbits/s dup=0 drop=13 speed=0.966x elapsed=0:00:32.11    frame=  927 fps= 28 q=24.0 size=     117KiB time=00:00:31.56 bitrate=  30.3kbits/s dup=0 drop=13 speed=0.967x elapsed=0:00:32.63    frame=  942 fps= 28 q=24.0 size=     117KiB time=00:00:32.06 bitrate=  29.9kbits/s dup=0 drop=13 speed=0.968x elapsed=0:00:33.14    frame=  958 fps= 28 q=24.0 size=     149KiB time=00:00:32.60 bitrate=  37.4kbits/s dup=0 drop=13 speed=0.968x elapsed=0:00:33.66    frame=  973 fps= 28 q=24.0 size=     149KiB time=00:00:33.10 bitrate=  36.8kbits/s dup=0 drop=13 speed=0.969x elapsed=0:00:34.17    frame=  988 fps= 28 q=24.0 size=     149KiB time=00:00:33.60 bitrate=  36.3kbits/s dup=0 drop=13 speed=0.969x elapsed=0:00:34.68    frame= 1004 fps= 29 q=24.0 size=     156KiB time=00:00:34.13 bitrate=  37.6kbits/s dup=0 drop=13 speed=0.969x elapsed=0:00:35.21    frame= 1019 fps= 29 q=24.0 size=     156KiB time=00:00:34.63 bitrate=  37.0kbits/s dup=0 drop=13 speed=0.97x elapsed=0:00:35.71    frame= 1035 fps= 29 q=24.0 size=     156KiB time=00:00:35.16 bitrate=  36.4kbits/s dup=0 drop=13 speed=0.971x elapsed=0:00:36.23    frame= 1050 fps= 29 q=24.0 size=     156KiB time=00:00:35.66 bitrate=  35.9kbits/s dup=0 drop=13 speed=0.97x elapsed=0:00:36.75    frame= 1066 fps= 29 q=24.0 size=     156KiB time=00:00:36.20 bitrate=  35.4kbits/s dup=0 drop=13 speed=0.972x elapsed=0:00:37.26    frame= 1080 fps= 29 q=24.0 size=     156KiB time=00:00:36.66 bitrate=  35.0kbits/s dup=0 drop=14 speed=0.97x elapsed=0:00:37.78    

[q] command received. Exiting.

[out#0/matroska @ 000001e175c80500] video:226KiB audio:0KiB subtitle:0KiB other streams:0KiB global headers:0KiB muxing overhead: 3.341960%
frame= 1128 fps= 29 q=-1.0 Lsize=     234KiB time=00:00:38.30 bitrate=  50.0kbits/s dup=0 drop=14 speed=0.999x elapsed=0:00:38.33    
[libx264 @ 000001e175d01900] frame I:6     Avg QP: 2.62  size:  6158
[libx264 @ 000001e175d01900] frame P:297   Avg QP: 8.00  size:   432
[libx264 @ 000001e175d01900] frame B:825   Avg QP: 9.40  size:    79
[libx264 @ 000001e175d01900] consecutive B-frames:  2.2%  0.4%  1.3% 96.1%
[libx264 @ 000001e175d01900] mb I  I16..4: 97.1%  0.2%  2.7%
[libx264 @ 000001e175d01900] mb P  I16..4:  3.6%  0.0%  0.1%  P16..4:  0.1%  0.1%  0.0%  0.0%  0.0%    skip:96.0%
[libx264 @ 000001e175d01900] mb B  I16..4:  0.1%  0.0%  0.0%  B16..8:  0.3%  0.0%  0.0%  direct: 0.0%  skip:99.6%  L0:39.9% L1:58.7% BI: 1.4%
[libx264 @ 000001e175d01900] 8x8 transform intra:0.7% inter:4.2%
[libx264 @ 000001e175d01900] coded y,uvDC,uvAC intra: 2.6% 5.2% 4.5% inter: 0.0% 0.1% 0.0%
[libx264 @ 000001e175d01900] i16 v,h,dc,p: 93%  6%  1%  0%
[libx264 @ 000001e175d01900] i8 v,h,dc,ddl,ddr,vr,hd,vl,hu: 19% 20% 38%  3%  1%  2%  2%  3% 12%
[libx264 @ 000001e175d01900] i4 v,h,dc,ddl,ddr,vr,hd,vl,hu: 22% 28% 36%  2%  1%  1%  4%  1%  5%
[libx264 @ 000001e175d01900] i8c dc,h,v,p: 85%  7%  8%  0%
[libx264 @ 000001e175d01900] Weighted P-Frames: Y:2.4% UV:2.4%
[libx264 @ 000001e175d01900] kb/s:48.08
